# Blender 3.6.4
# www.blender.org
o Plane
v 0.000000 -20.000000 0.000000
v 80.000000 -0.504398 0.000000
v -0.000000 20.000000 -0.000000
v 80.000000 0.504398 0.000000
v 10.000000 -17.563049 0.000000
v 20.000000 -15.126100 0.000000
v 30.000000 -12.689150 0.000000
v 40.000000 -10.252199 0.000000
v 50.000000 -7.815249 0.000000
v 60.000000 -5.378299 0.000000
v 70.000000 -2.941349 0.000000
v 70.000000 2.941348 0.000000
v 60.000000 5.378299 0.000000
v 50.000000 7.815249 0.000000
v 40.000000 10.252199 0.000000
v 30.000000 12.689150 0.000000
v 20.000000 15.126100 0.000000
v 10.000000 17.563049 0.000000
v 5.000000 18.781525 0.000000
v 5.000000 -18.781525 0.000000
v 15.000000 -16.344574 0.000000
v 15.000000 16.344574 0.000000
v 25.000000 -13.907624 0.000000
v 25.000000 13.907624 0.000000
v 35.000000 -11.470675 0.000000
v 35.000000 11.470675 0.000000
v 45.000000 -9.033724 0.000000
v 45.000000 9.033724 0.000000
v 55.000000 -6.596774 0.000000
v 55.000000 6.596774 0.000000
v 65.000000 -4.159823 0.000000
v 65.000000 4.159823 0.000000
v 75.000000 -1.722873 0.000000
v 75.000000 1.722873 0.000000
vn -0.0000 -0.0000 1.0000
s 0
f 33//1 2//1 4//1 34//1
f 20//1 5//1 18//1 19//1
f 21//1 6//1 17//1 22//1
f 23//1 7//1 16//1 24//1
f 25//1 8//1 15//1 26//1
f 27//1 9//1 14//1 28//1
f 29//1 10//1 13//1 30//1
f 31//1 11//1 12//1 32//1
f 1//1 20//1 19//1 3//1
f 5//1 21//1 22//1 18//1
f 6//1 23//1 24//1 17//1
f 7//1 25//1 26//1 16//1
f 8//1 27//1 28//1 15//1
f 9//1 29//1 30//1 14//1
f 10//1 31//1 32//1 13//1
f 11//1 33//1 34//1 12//1
